<svg width="252" height="55" viewBox="0 0 252 55" fill="none" xmlns="http://www.w3.org/2000/svg">
<path d="M25.25 22.5938C25.8542 22.5521 26.5 22.7083 27.1875 23.0625C27.875 23.3958 28.3958 23.7188 28.75 24.0312C28.6458 24.1562 28.5625 24.2396 28.5 24.2812C28.4375 24.3229 28.375 24.3438 28.3125 24.3438C28.2708 24.3229 28.2188 24.3021 28.1562 24.2812C28.0938 24.2396 27.9896 24.2083 27.8438 24.1875C27.7188 24.1667 27.5312 24.1771 27.2812 24.2188C26.4062 24.4479 25.125 25.0729 23.4375 26.0938C21.75 27.0938 20.1146 28.1562 18.5312 29.2812C16.9479 30.4062 15.8854 31.2396 15.3438 31.7812C15.4688 31.9896 15.5938 32.1875 15.7188 32.375C16.0104 32.7917 16.2917 33.2188 16.5625 33.6562C17.3542 35.1146 17.5625 36.5729 17.1875 38.0312C16.8125 39.4896 16.0417 40.8542 14.875 42.125C13.7292 43.375 12.3958 44.4271 10.875 45.2812C9.29167 46.0938 7.58333 46.4479 5.75 46.3438C3.89583 46.2396 2.48958 45.6667 1.53125 44.625C0.572917 43.5625 0.645833 42 1.75 39.9375C2.6875 38.3958 3.89583 36.9479 5.375 35.5938C6.83333 34.2396 8.34375 32.9688 9.90625 31.7812C9.61458 31.3854 9.33333 31.0104 9.0625 30.6562C8.41667 29.8438 7.83333 29.0312 7.3125 28.2188C6.79167 27.3854 6.40625 26.5 6.15625 25.5625C5.69792 23.4167 5.9375 21.3438 6.875 19.3438C7.8125 17.3229 9.1875 15.6875 11 14.4375C11.6042 14.0625 12.3229 13.9479 13.1562 14.0938C13.9896 14.2188 14.7812 14.4688 15.5312 14.8438C16.3021 15.2188 16.8854 15.5625 17.2812 15.875C18.3438 14.1875 19.2708 12.8958 20.0625 12C20.8542 11.1042 21.5104 10.4583 22.0312 10.0625C22.3229 9.89583 22.6979 9.95833 23.1562 10.25C23.6146 10.5417 24.0625 10.9583 24.5 11.5C24.9583 12.0208 25.2812 12.5312 25.4688 13.0312C25.6771 13.5312 25.6562 13.8854 25.4062 14.0938C24.4896 14.7604 23.4271 15.7917 22.2188 17.1875C21.0312 18.5833 20.0417 20.0208 19.25 21.5C18.4792 22.9792 18.2604 24.1771 18.5938 25.0938C18.0938 25.1979 17.4583 24.9896 16.6875 24.4688C15.9375 23.9479 15.4271 23.2292 15.1562 22.3125C15.0312 21.6042 15.1146 20.8021 15.4062 19.9062C15.7188 19.0104 16 18.3438 16.25 17.9062C15.2083 17.9271 14.2917 18.6354 13.5 20.0312C12.7292 21.4062 12.2917 23 12.1875 24.8125C12.1042 26.6042 12.5521 28.1354 13.5312 29.4062C14.1979 28.9688 14.9583 28.4479 15.8125 27.8438C17.375 26.7188 19.0208 25.625 20.75 24.5625C22.4792 23.5 23.9792 22.8438 25.25 22.5938ZM5.5 42.5625C6.33333 42.4583 7.27083 41.9479 8.3125 41.0312C9.375 40.0938 10.25 39.0417 10.9375 37.875C11.625 36.7083 11.8229 35.7396 11.5312 34.9688C11.4062 35.1146 11.2708 35.25 11.125 35.375C9.9375 36.4583 8.83333 37.5833 7.8125 38.75C6.79167 39.8958 6.02083 41.1667 5.5 42.5625ZM42.0312 6.71875C43.7188 7.01042 45.0417 7.32292 46 7.65625C46.9792 7.96875 47.7083 8.42708 48.1875 9.03125C48.4375 9.38542 48.6771 9.89583 48.9062 10.5625C49.1562 11.2292 49.2917 11.8542 49.3125 12.4375C49.3333 13 49.1667 13.3333 48.8125 13.4375C48.2083 12.6458 46.9896 12 45.1562 11.5C42.3438 10.875 40.25 10.6146 38.875 10.7188C38.2292 11.6354 37.5833 12.625 36.9375 13.6875C35 16.9375 33.2917 20.4375 31.8125 24.1875C30.3333 27.9167 29.2188 31.4792 28.4688 34.875C27.7188 38.2708 27.4792 41.0729 27.75 43.2812C28.0208 45.4688 28.9479 46.6354 30.5312 46.7812C29.9479 47.3646 29.0729 47.5625 27.9062 47.375C26.7604 47.2083 25.6562 46.5833 24.5938 45.5C23.5104 44.4375 22.7917 42.8542 22.4375 40.75C22.1458 37.5833 22.9062 33.2812 24.7188 27.8438C26.5312 22.4062 28.7396 17.1875 31.3438 12.1875C31.5521 11.7708 31.7604 11.375 31.9688 11H31.9375C31.5208 11.0208 30.9479 11.1042 30.2188 11.25C29.4896 11.3958 28.8021 11.5833 28.1562 11.8125C27.5312 12.0208 27.1354 12.25 26.9688 12.5C26.7604 12.8542 26.5312 12.9688 26.2812 12.8438C26.0521 12.6979 25.8229 12.4375 25.5938 12.0625C25.3646 11.6667 25.1667 11.2708 25 10.875C24.8125 10.4583 24.6979 10.1562 24.6562 9.96875C24.5104 9.51042 24.5521 9.10417 24.7812 8.75C25.0104 8.39583 25.3333 8.11458 25.75 7.90625C26.8958 7.40625 28.2292 7.04167 29.75 6.8125C31.2917 6.58333 32.6354 6.42708 33.7812 6.34375C33.9688 6.32292 34.2917 6.29167 34.75 6.25C36 4.39583 37.3333 2.6875 38.75 1.125C39.2083 0.791667 39.7917 0.708333 40.5 0.875C41.2083 1.04167 41.8958 1.42708 42.5625 2.03125C43.25 2.63542 43.6562 3.21875 43.7812 3.78125C43.9271 4.32292 43.8438 4.69792 43.5312 4.90625C42.8854 5.71875 42.3854 6.32292 42.0312 6.71875ZM59.1562 23.875C59.6979 23.625 60.0625 23.7188 60.25 24.1562C60.4375 24.5938 60.4167 25.1562 60.1875 25.8438C59.9583 26.5312 59.5 27.1354 58.8125 27.6562C55.6875 29.5104 52.8958 31.4792 50.4375 33.5625C49.8958 34 49.4688 34.5312 49.1562 35.1562C48.0938 37.4479 46.7708 39.9479 45.1875 42.6562C43.6042 45.3438 41.875 47.7812 40 49.9688C38.1458 52.1771 36.2708 53.6771 34.375 54.4688C33.6042 54.7188 32.6042 54.6042 31.375 54.125C30.125 53.6458 29.1562 52.8646 28.4688 51.7812C27.7604 50.6979 27.8542 49.375 28.75 47.8125C30.0208 45.875 31.7292 43.9167 33.875 41.9375C36 39.9583 38.0312 38.1771 39.9688 36.5938C42.2604 34.7188 43.6354 33.4479 44.0938 32.7812C44.5312 31.8854 45.0208 30.7188 45.5625 29.2812C46.1042 27.8229 46.5417 26.625 46.875 25.6875C45.5625 27.7708 44.0417 29.7917 42.3125 31.75C40.6042 33.7083 39 35.1979 37.5 36.2188C36.875 36.5729 36.0625 36.6146 35.0625 36.3438C34.0625 36.0521 33.1875 35.5729 32.4375 34.9062C31.6875 34.2188 31.3646 33.4792 31.4688 32.6875C31.9062 30.4583 32.7292 27.9375 33.9375 25.125C35.1458 22.2917 36.5625 19.8646 38.1875 17.8438C38.6042 17.4479 39.25 17.375 40.125 17.625C41.0208 17.8542 41.7708 18.25 42.375 18.8125C43 19.3542 43.1042 19.9062 42.6875 20.4688C42.1667 21.0729 41.5625 21.9688 40.875 23.1562C40.1875 24.3229 39.5417 25.5417 38.9375 26.8125C38.3542 28.0625 37.9375 29.1146 37.6875 29.9688C37.4583 30.8229 37.5312 31.2292 37.9062 31.1875C38.7188 30.875 40.0208 29.5 41.8125 27.0625C43.6042 24.6042 45.3542 22.0312 47.0625 19.3438C48.7917 16.6562 49.9583 14.8021 50.5625 13.7812C50.9167 13.3021 51.5104 13.1562 52.3438 13.3438C53.1979 13.5104 53.9792 13.8542 54.6875 14.375C55.3958 14.875 55.7292 15.3854 55.6875 15.9062C55.4375 17.1979 55.0521 18.7292 54.5312 20.5C54.0104 22.2708 53.5 23.9583 53 25.5625C52.6458 26.7083 52.3542 27.6771 52.125 28.4688C53.6042 27.4271 54.875 26.5625 55.9375 25.875C57 25.1667 58.0729 24.5 59.1562 23.875ZM31.6562 50.7812C33.0312 49.7396 34.4479 48.3438 35.9062 46.5938C37.3646 44.8438 38.625 43.0833 39.6875 41.3125C38.0833 42.8333 36.3958 44.5417 34.625 46.4375C32.8542 48.3542 31.8646 49.8021 31.6562 50.7812ZM64.2812 47.6562C64.0104 47.6771 63.4688 47.6562 62.6562 47.5938C61.8646 47.5312 60.8333 47 59.5625 46C58.3125 45 57.4375 43.4583 56.9375 41.375C56.8542 40.9375 56.8021 40.4792 56.7812 40C56.6146 37 57.3333 32.9271 58.9375 27.7812C60.5208 22.6146 62.6146 17.4583 65.2188 12.3125C67.8229 7.14583 70.2083 3.60417 72.375 1.6875C72.6458 1.47917 72.9479 1.36458 73.2812 1.34375C73.9062 1.32292 74.8229 1.70833 76.0312 2.5L76.4062 2.6875C77.5521 3.39583 78.1354 4.05208 78.1562 4.65625C78.1771 4.90625 78.0729 5.14583 77.8438 5.375C75.6146 7.39583 73.5104 10.0938 71.5312 13.4688C69.5521 16.8229 67.8438 20.4167 66.4062 24.25C64.9896 28.0625 63.9583 31.6875 63.3125 35.125C62.8333 37.6458 62.6458 39.8333 62.75 41.6875C62.7917 42.3542 62.9479 43.375 63.2188 44.75C63.4896 46.125 64.5104 46.8438 66.2812 46.9062C65.8021 47.3646 65.1354 47.6146 64.2812 47.6562ZM80.5625 23.4062C80.8333 23.0521 81.1458 22.9062 81.5 22.9688C81.875 23.0104 82.1875 23.1562 82.4375 23.4062C82.6875 23.6562 82.7604 23.9271 82.6562 24.2188C82.0312 25.5521 81.0833 27.2604 79.8125 29.3438C78.5625 31.4271 77.2083 33.3854 75.75 35.2188C74.2917 37.0521 72.9688 38.25 71.7812 38.8125C71.0521 39.1042 70.2292 39.1458 69.3125 38.9375C68.3958 38.7292 67.6042 38.3229 66.9375 37.7188C66.25 37.1146 65.9167 36.3646 65.9375 35.4688C66.0625 33.6354 66.6458 31.1042 67.6875 27.875C68.7292 24.625 69.9167 21.8542 71.25 19.5625C71.6042 19.125 72.2188 18.9792 73.0938 19.125C73.9896 19.2708 74.7812 19.5833 75.4688 20.0625C76.1771 20.5417 76.4062 21.0833 76.1562 21.6875C74.3021 25.3125 73.0208 28.1667 72.3125 30.25C71.625 32.3333 71.3958 33.6667 71.625 34.25C71.9792 35.0625 72.9792 34.4583 74.625 32.4375C76.2917 30.4167 78.2708 27.4062 80.5625 23.4062ZM76.6875 16.9375C76.3542 17.3958 75.8542 17.6042 75.1875 17.5625C74.5208 17.5208 73.9062 17.3438 73.3438 17.0312C72.7812 16.6979 72.5104 16.3125 72.5312 15.875C72.7604 14.6458 73.0938 13.4583 73.5312 12.3125C73.9896 11.1458 74.3646 10.3021 74.6562 9.78125C75.0521 9.28125 75.7083 9.08333 76.625 9.1875C77.5417 9.29167 78.3438 9.58333 79.0312 10.0625C79.7396 10.5417 79.9583 11.0833 79.6875 11.6875C79.5208 12 79.3021 12.3958 79.0312 12.875C78.6562 13.5625 78.25 14.2812 77.8125 15.0312C77.3958 15.7812 77.0208 16.4167 76.6875 16.9375ZM97.1875 22.5938C97.7917 22.5521 98.4375 22.7083 99.125 23.0625C99.8125 23.3958 100.333 23.7188 100.688 24.0312C100.583 24.1562 100.5 24.2396 100.438 24.2812C100.375 24.3229 100.312 24.3438 100.25 24.3438C100.208 24.3229 100.156 24.3021 100.094 24.2812C100.031 24.2396 99.9271 24.2083 99.7812 24.1875C99.6562 24.1667 99.4688 24.1771 99.2188 24.2188C98.3438 24.4479 97.0625 25.0729 95.375 26.0938C93.6875 27.0938 92.0521 28.1562 90.4688 29.2812C88.8854 30.4062 87.8229 31.2396 87.2812 31.7812C87.4062 31.9896 87.5312 32.1875 87.6562 32.375C87.9479 32.7917 88.2292 33.2188 88.5 33.6562C89.2917 35.1146 89.5 36.5729 89.125 38.0312C88.75 39.4896 87.9792 40.8542 86.8125 42.125C85.6667 43.375 84.3333 44.4271 82.8125 45.2812C81.2292 46.0938 79.5208 46.4479 77.6875 46.3438C75.8333 46.2396 74.4271 45.6667 73.4688 44.625C72.5104 43.5625 72.5833 42 73.6875 39.9375C74.625 38.3958 75.8333 36.9479 77.3125 35.5938C78.7708 34.2396 80.2812 32.9688 81.8438 31.7812C81.5521 31.3854 81.2708 31.0104 81 30.6562C80.3542 29.8438 79.7708 29.0312 79.25 28.2188C78.7292 27.3854 78.3438 26.5 78.0938 25.5625C77.6354 23.4167 77.875 21.3438 78.8125 19.3438C79.75 17.3229 81.125 15.6875 82.9375 14.4375C83.5417 14.0625 84.2604 13.9479 85.0938 14.0938C85.9271 14.2188 86.7188 14.4688 87.4688 14.8438C88.2396 15.2188 88.8229 15.5625 89.2188 15.875C90.2812 14.1875 91.2083 12.8958 92 12C92.7917 11.1042 93.4479 10.4583 93.9688 10.0625C94.2604 9.89583 94.6354 9.95833 95.0938 10.25C95.5521 10.5417 96 10.9583 96.4375 11.5C96.8958 12.0208 97.2188 12.5312 97.4062 13.0312C97.6146 13.5312 97.5938 13.8854 97.3438 14.0938C96.4271 14.7604 95.3646 15.7917 94.1562 17.1875C92.9688 18.5833 91.9792 20.0208 91.1875 21.5C90.4167 22.9792 90.1979 24.1771 90.5312 25.0938C90.0312 25.1979 89.3958 24.9896 88.625 24.4688C87.875 23.9479 87.3646 23.2292 87.0938 22.3125C86.9688 21.6042 87.0521 20.8021 87.3438 19.9062C87.6562 19.0104 87.9375 18.3438 88.1875 17.9062C87.1458 17.9271 86.2292 18.6354 85.4375 20.0312C84.6667 21.4062 84.2292 23 84.125 24.8125C84.0417 26.6042 84.4896 28.1354 85.4688 29.4062C86.1354 28.9688 86.8958 28.4479 87.75 27.8438C89.3125 26.7188 90.9583 25.625 92.6875 24.5625C94.4167 23.5 95.9167 22.8438 97.1875 22.5938ZM77.4375 42.5625C78.2708 42.4583 79.2083 41.9479 80.25 41.0312C81.3125 40.0938 82.1875 39.0417 82.875 37.875C83.5625 36.7083 83.7604 35.7396 83.4688 34.9688C83.3438 35.1146 83.2083 35.25 83.0625 35.375C81.875 36.4583 80.7708 37.5833 79.75 38.75C78.7292 39.8958 77.9583 41.1667 77.4375 42.5625ZM120.938 22.6562C121.167 22.3021 121.5 22.1771 121.938 22.2812C122.375 22.3646 122.76 22.5833 123.094 22.9375C123.427 23.2917 123.531 23.6771 123.406 24.0938C122.01 27.3021 120.25 30.3125 118.125 33.125C116 35.9167 114.115 37.7708 112.469 38.6875C111.74 39.0208 110.875 39.1042 109.875 38.9375C108.875 38.75 107.969 38.4062 107.156 37.9062C106.344 37.4062 105.854 36.8646 105.688 36.2812C105.479 34.9896 105.667 33.3229 106.25 31.2812C106.854 29.2396 107.396 27.6042 107.875 26.375C108.021 26 108.115 25.7292 108.156 25.5625C106.365 27.2083 104.333 29.75 102.062 33.1875C99.8125 36.6042 98.1667 39.375 97.125 41.5C96.8125 42 96.2188 42.1979 95.3438 42.0938C94.4688 41.9896 93.6562 41.7188 92.9062 41.2812C92.1562 40.8229 91.8229 40.3229 91.9062 39.7812C92.6354 37.1354 94.0208 33.25 96.0625 28.125C98.0833 23 100.333 17.9792 102.812 13.0625C105.292 8.14583 107.531 4.66667 109.531 2.625C110.302 1.97917 111.198 1.8125 112.219 2.125C113.24 2.4375 114.073 2.95833 114.719 3.6875C115.365 4.41667 115.5 5.07292 115.125 5.65625C114.396 6.03125 113.167 7.36458 111.438 9.65625C109.729 11.9271 107.896 14.8229 105.938 18.3438C104 21.8438 102.323 25.6042 100.906 29.625C102.26 27.6458 103.75 25.6562 105.375 23.6562C107.021 21.6354 108.562 20.125 110 19.125C110.771 18.6875 111.625 18.6146 112.562 18.9062C113.521 19.1771 114.302 19.6458 114.906 20.3125C115.531 20.9792 115.708 21.6875 115.438 22.4375C115.146 23.0833 114.792 23.8438 114.375 24.7188C113.521 26.4896 112.688 28.3854 111.875 30.4062C111.062 32.4062 110.625 34.1146 110.562 35.5312C112.458 34.5312 114.292 32.8333 116.062 30.4375C117.854 28.0417 119.479 25.4479 120.938 22.6562ZM151.375 13.5938C152.396 13.1771 153.5 13.3646 154.688 14.1562C155.875 14.9479 156.802 16.125 157.469 17.6875C158.135 19.25 158.208 21 157.688 22.9375C156.688 26.0833 155.083 29.4896 152.875 33.1562C150.688 36.8229 148.646 39.4167 146.75 40.9375C146.021 41.4375 145.094 41.6771 143.969 41.6562C142.865 41.6146 141.844 41.3542 140.906 40.875C139.948 40.375 139.365 39.6875 139.156 38.8125C138.927 37.25 139.073 35.0938 139.594 32.3438C140.094 29.5938 140.719 27.0104 141.469 24.5938C142.219 22.1562 142.854 20.6458 143.375 20.0625C143.792 19.75 144.385 19.6875 145.156 19.875C145.948 20.0625 146.646 20.375 147.25 20.8125C147.854 21.2292 148.083 21.6458 147.938 22.0625C147.542 22.9167 147.031 24.3646 146.406 26.4062C145.802 28.4479 145.26 30.5208 144.781 32.625C144.302 34.7292 144.073 36.3021 144.094 37.3438C144.365 37.2396 144.99 36.5521 145.969 35.2812C146.969 34.0104 148.052 32.3958 149.219 30.4375C150.406 28.4792 151.417 26.4167 152.25 24.25C153.104 22.0625 153.521 20.0208 153.5 18.125C153.479 16.2292 152.771 14.7188 151.375 13.5938ZM177.812 22.5938C178.417 22.5521 179.062 22.7083 179.75 23.0625C180.438 23.3958 180.958 23.7188 181.312 24.0312C181.208 24.1562 181.125 24.2396 181.062 24.2812C181 24.3229 180.938 24.3438 180.875 24.3438C180.833 24.3229 180.781 24.3021 180.719 24.2812C180.656 24.2396 180.552 24.2083 180.406 24.1875C180.281 24.1667 180.094 24.1771 179.844 24.2188C178.969 24.4479 177.688 25.0729 176 26.0938C174.312 27.0938 172.677 28.1562 171.094 29.2812C169.51 30.4062 168.448 31.2396 167.906 31.7812C168.031 31.9896 168.156 32.1875 168.281 32.375C168.573 32.7917 168.854 33.2188 169.125 33.6562C169.917 35.1146 170.125 36.5729 169.75 38.0312C169.375 39.4896 168.604 40.8542 167.438 42.125C166.292 43.375 164.958 44.4271 163.438 45.2812C161.854 46.0938 160.146 46.4479 158.312 46.3438C156.458 46.2396 155.052 45.6667 154.094 44.625C153.135 43.5625 153.208 42 154.312 39.9375C155.25 38.3958 156.458 36.9479 157.938 35.5938C159.396 34.2396 160.906 32.9688 162.469 31.7812C162.177 31.3854 161.896 31.0104 161.625 30.6562C160.979 29.8438 160.396 29.0312 159.875 28.2188C159.354 27.3854 158.969 26.5 158.719 25.5625C158.26 23.4167 158.5 21.3438 159.438 19.3438C160.375 17.3229 161.75 15.6875 163.562 14.4375C164.167 14.0625 164.885 13.9479 165.719 14.0938C166.552 14.2188 167.344 14.4688 168.094 14.8438C168.865 15.2188 169.448 15.5625 169.844 15.875C170.906 14.1875 171.833 12.8958 172.625 12C173.417 11.1042 174.073 10.4583 174.594 10.0625C174.885 9.89583 175.26 9.95833 175.719 10.25C176.177 10.5417 176.625 10.9583 177.062 11.5C177.521 12.0208 177.844 12.5312 178.031 13.0312C178.24 13.5312 178.219 13.8854 177.969 14.0938C177.052 14.7604 175.99 15.7917 174.781 17.1875C173.594 18.5833 172.604 20.0208 171.812 21.5C171.042 22.9792 170.823 24.1771 171.156 25.0938C170.656 25.1979 170.021 24.9896 169.25 24.4688C168.5 23.9479 167.99 23.2292 167.719 22.3125C167.594 21.6042 167.677 20.8021 167.969 19.9062C168.281 19.0104 168.562 18.3438 168.812 17.9062C167.771 17.9271 166.854 18.6354 166.062 20.0312C165.292 21.4062 164.854 23 164.75 24.8125C164.667 26.6042 165.115 28.1354 166.094 29.4062C166.76 28.9688 167.521 28.4479 168.375 27.8438C169.938 26.7188 171.583 25.625 173.312 24.5625C175.042 23.5 176.542 22.8438 177.812 22.5938ZM158.062 42.5625C158.896 42.4583 159.833 41.9479 160.875 41.0312C161.938 40.0938 162.812 39.0417 163.5 37.875C164.188 36.7083 164.385 35.7396 164.094 34.9688C163.969 35.1146 163.833 35.25 163.688 35.375C162.5 36.4583 161.396 37.5833 160.375 38.75C159.354 39.8958 158.583 41.1667 158.062 42.5625ZM196.656 22.0625C196.781 21.9167 196.969 21.8854 197.219 21.9688C197.469 22.0312 197.729 22.1667 198 22.375C198.271 22.5833 198.479 22.8021 198.625 23.0312C198.792 23.2396 198.833 23.4167 198.75 23.5625C198.417 24.1042 198.042 24.7396 197.625 25.4688C196.646 27.1771 195.479 29.0625 194.125 31.125C192.792 33.1875 191.323 35.0625 189.719 36.75C188.115 38.4167 186.427 39.5208 184.656 40.0625C183.615 40.2917 182.396 40.1979 181 39.7812C179.604 39.3646 178.354 38.75 177.25 37.9375C176.146 37.1042 175.521 36.2083 175.375 35.25C175.208 32.9792 175.677 30.3438 176.781 27.3438C177.885 24.3438 179.312 21.6458 181.062 19.25C182.833 16.8542 184.615 15.4167 186.406 14.9375C186.781 14.8542 187.135 14.875 187.469 15C187.802 15.125 188.208 15.3125 188.688 15.5625C188.938 15.6875 189.229 15.8333 189.562 16C189.646 15.875 189.75 15.7188 189.875 15.5312C190.146 15.1562 190.417 14.7917 190.688 14.4375C190.958 14.0625 191.156 13.8438 191.281 13.7812C191.99 13.5312 192.76 13.6562 193.594 14.1562C194.448 14.6562 195.115 15.2708 195.594 16C196.094 16.7083 196.177 17.25 195.844 17.625C194.219 19.1458 192.917 20.8438 191.938 22.7188C190.979 24.5729 190.615 26 190.844 27C190.573 27.2917 190.104 27.3542 189.438 27.1875C188.792 27.0208 188.167 26.6667 187.562 26.125C186.979 25.5625 186.656 24.8542 186.594 24C186.615 23.2292 186.823 22.3021 187.219 21.2188C187.635 20.1354 188.031 19.2604 188.406 18.5938C187.51 19.0521 186.542 20.2292 185.5 22.125C184.479 24.0208 183.625 26.0938 182.938 28.3438C182.25 30.5729 181.958 32.4479 182.062 33.9688C182.188 35.4688 182.948 36.0729 184.344 35.7812C185.99 35.2812 187.646 34.0417 189.312 32.0625C190.979 30.0833 192.698 27.7917 194.469 25.1875C195.177 24.1458 195.906 23.1042 196.656 22.0625ZM213.188 31.0312C213.604 30.9896 213.875 31.1875 214 31.625C214.125 32.0417 214.125 32.4792 214 32.9375C213.896 33.375 213.698 33.625 213.406 33.6875C212.51 33.8125 211.635 33.8438 210.781 33.7812C209.927 33.7188 208.969 33.5104 207.906 33.1562C207.823 33.3229 207.729 33.5104 207.625 33.7188C207.167 34.7812 206.479 36.0417 205.562 37.5C204.667 38.9583 203.542 40.0938 202.188 40.9062C201.25 41.3438 200.083 41.3958 198.688 41.0625C197.312 40.7292 196.031 40.1458 194.844 39.3125C193.656 38.4583 192.885 37.4896 192.531 36.4062C192.177 34.9062 192.208 33.2812 192.625 31.5312C193.042 29.7604 193.646 28.1146 194.438 26.5938C195.208 25.0729 195.99 23.9375 196.781 23.1875C197.052 22.9167 197.354 22.6667 197.688 22.4375C197.833 22.3333 197.979 22.2292 198.125 22.125C197.958 21.25 197.865 20.375 197.844 19.5C197.844 18.625 198.042 17.7917 198.438 17C199.021 16.1042 200.156 15.6562 201.844 15.6562C203.552 15.6354 205.219 16.1354 206.844 17.1562C208.469 18.1771 209.458 19.7708 209.812 21.9375C209.979 23.4167 209.958 24.8646 209.75 26.2812C209.562 27.6771 209.281 29.1042 208.906 30.5625C209.323 30.7917 209.927 30.9688 210.719 31.0938C211.51 31.1979 212.333 31.1771 213.188 31.0312ZM197.688 38C199.229 37.0833 200.396 36 201.188 34.75C202 33.5 202.677 32.1562 203.219 30.7188C201.781 29.7812 200.688 28.5417 199.938 27C199.646 27.3333 199.26 28.1979 198.781 29.5938C198.323 30.9688 197.948 32.4583 197.656 34.0625C197.385 35.6667 197.396 36.9792 197.688 38ZM204.156 27.2188C204.448 26.4271 204.604 25.4896 204.625 24.4062C204.667 23.3021 204.615 22.2812 204.469 21.3438C204.323 20.3854 204.125 19.7188 203.875 19.3438C202.646 21.1562 202.74 23.7812 204.156 27.2188ZM236.875 1.78125C237.667 1.40625 238.542 1.45833 239.5 1.9375C240.458 2.39583 241.198 3 241.719 3.75C242.26 4.47917 242.281 5.07292 241.781 5.53125C239.781 7.13542 237.833 9.52083 235.938 12.6875C234.062 15.8542 232.396 19.3438 230.938 23.1562C229.5 26.9688 228.427 30.6458 227.719 34.1875C227.01 37.7083 226.833 40.6354 227.188 42.9688C227.542 45.3021 228.583 46.5729 230.312 46.7812C229.75 47.3854 228.906 47.6354 227.781 47.5312C226.656 47.4271 225.552 46.8646 224.469 45.8438C223.406 44.8229 222.646 43.25 222.188 41.125C221.729 38.9792 221.875 36.1771 222.625 32.7188C222.646 32.5729 222.625 32.4896 222.562 32.4688C222.521 32.4479 222.458 32.5104 222.375 32.6562C221.75 33.8438 220.958 35.0833 220 36.375C219.042 37.6458 218.208 38.4375 217.5 38.75C216.833 38.9792 216.042 39.0208 215.125 38.875C214.208 38.7083 213.396 38.3542 212.688 37.8125C211.958 37.25 211.552 36.4896 211.469 35.5312C211.406 34.0312 211.677 32.1979 212.281 30.0312C212.885 27.8438 213.74 25.6562 214.844 23.4688C215.948 21.2812 217.208 19.4375 218.625 17.9375C220.062 16.4167 221.573 15.5729 223.156 15.4062C223.927 15.3854 224.677 15.5208 225.406 15.8125C226.135 16.1042 226.823 16.4479 227.469 16.8438C227.885 15.8438 228.646 14.2708 229.75 12.125C230.854 9.97917 232.062 7.88542 233.375 5.84375C234.688 3.78125 235.854 2.42708 236.875 1.78125ZM225.219 21.2812C225.365 20.7396 225.365 20.3125 225.219 20C225.073 19.6667 224.698 19.5938 224.094 19.7812C223.219 20.1562 222.302 21.0208 221.344 22.375C220.406 23.7083 219.552 25.2083 218.781 26.875C218.031 28.5208 217.5 30 217.188 31.3125C216.896 32.6042 216.969 33.3854 217.406 33.6562C217.719 33.7188 218.26 33.2396 219.031 32.2188C219.802 31.1771 220.635 29.9062 221.531 28.4062C222.448 26.8854 223.25 25.4583 223.938 24.125C224.646 22.7708 225.073 21.8229 225.219 21.2812ZM249.375 22.9062C249.604 22.6979 249.906 22.6562 250.281 22.7812C250.656 22.9062 250.958 23.1354 251.188 23.4688C251.438 23.7812 251.469 24.125 251.281 24.5C250.135 27.75 248.292 30.8021 245.75 33.6562C243.229 36.4896 240.635 38.6667 237.969 40.1875C236.719 40.75 235.375 40.6979 233.938 40.0312C232.479 39.3438 231.375 38.5938 230.625 37.7812C229.521 36.5104 229.104 34.7292 229.375 32.4375C229.646 30.1458 230.365 27.7188 231.531 25.1562C232.677 22.5938 234.031 20.2812 235.594 18.2188C237.156 16.1354 238.667 14.6771 240.125 13.8438C241.104 13.3438 242.021 13.2396 242.875 13.5312C243.729 13.8229 244.688 14.3229 245.75 15.0312C246.062 15.2188 246.396 15.4167 246.75 15.625C247.708 16.2083 248.167 16.9583 248.125 17.875C248.083 18.5833 247.76 19.7604 247.156 21.4062C246.573 23.0521 245.729 24.6667 244.625 26.25C243.521 27.8333 242.208 28.8958 240.688 29.4375C239.917 29.6667 239.208 29.7396 238.562 29.6562C237.938 29.5729 237.281 29.375 236.594 29.0625C236.302 29.6875 236 30.5625 235.688 31.6875C235.375 32.8125 235.198 33.8646 235.156 34.8438C235.135 35.8021 235.396 36.3542 235.938 36.5C236.875 36.6042 238.198 35.9792 239.906 34.625C241.615 33.2708 243.344 31.5312 245.094 29.4062C246.844 27.2604 248.271 25.0938 249.375 22.9062ZM243.25 18.4062C242.688 18.8438 241.969 19.6458 241.094 20.8125C240.24 21.9792 239.458 23.1354 238.75 24.2812C238.062 25.4271 237.708 26.1667 237.688 26.5C238.646 26.6042 239.531 26.1875 240.344 25.25C241.156 24.2917 241.812 23.1667 242.312 21.875C242.833 20.5625 243.146 19.4062 243.25 18.4062Z" fill="#16BDCA"/>
</svg>
